<?xml version="1.0" encoding="UTF-8" standalone="no"?>
<!DOCTYPE svg PUBLIC "-//W3C//DTD SVG 1.1//EN" "http://www.w3.org/Graphics/SVG/1.1/DTD/svg11.dtd">
<svg width="100%" height="100%" viewBox="0 0 164 164" version="1.1" xmlns="http://www.w3.org/2000/svg" xmlns:xlink="http://www.w3.org/1999/xlink" xml:space="preserve" xmlns:serif="http://www.serif.com/" style="fill-rule:evenodd;clip-rule:evenodd;stroke-linejoin:round;stroke-miterlimit:2;">
    <path d="M81.6,0C126.636,0 163.2,36.564 163.2,81.6C163.2,126.636 126.636,163.2 81.6,163.2C36.564,163.2 0,126.636 0,81.6C0,36.564 36.564,0 81.6,0ZM51.892,108.857L51.892,126.111L29.264,126.111L29.264,108.857L51.892,108.857ZM133.936,108.857L133.936,126.111L111.308,126.111L111.308,108.857L133.936,108.857ZM79.23,108.857L79.23,126.111L56.591,126.111L56.591,108.857L79.23,108.857ZM106.608,108.857L106.608,126.111L83.969,126.111L83.969,108.857L106.608,108.857ZM133.936,84.929L133.936,102.183L111.308,102.183L111.308,84.929L133.936,84.929ZM106.608,84.929L106.608,102.183L83.969,102.183L83.969,84.929L106.608,84.929ZM79.23,84.929L79.23,102.183L56.591,102.183L56.591,84.929L79.23,84.929ZM133.936,61.002L133.936,78.255L111.308,78.255L111.308,61.002L133.936,61.002ZM79.23,61.002L79.23,78.255L56.591,78.255L56.591,61.002L79.23,61.002ZM133.936,37.089L133.936,54.343L111.308,54.343L111.308,37.089L133.936,37.089Z" style="fill:rgb(97,118,248);"/>
</svg>
