<?xml version="1.0" encoding="UTF-8" standalone="no"?><!DOCTYPE svg PUBLIC "-//W3C//DTD SVG 1.1//EN" "http://www.w3.org/Graphics/SVG/1.1/DTD/svg11.dtd"><svg width="100%" height="100%" viewBox="0 0 253 289" version="1.1" xmlns="http://www.w3.org/2000/svg" xmlns:xlink="http://www.w3.org/1999/xlink" xml:space="preserve" xmlns:serif="http://www.serif.com/" style="fill-rule:evenodd;clip-rule:evenodd;stroke-linejoin:round;stroke-miterlimit:2;"><path d="M241.093,156.154l-93.458,93.458c-6.46,6.459 -16.905,6.459 -23.296,-0l-15.53,-15.531c-6.46,-6.459 -6.46,-16.905 -0,-23.295l66.245,-66.245l-66.245,-66.245c-6.46,-6.46 -6.46,-16.905 -0,-23.296l15.462,-15.668c6.459,-6.459 16.904,-6.459 23.295,0l93.458,93.458c6.528,6.459 6.528,16.905 0.069,23.364Z" style="fill:#e8e3ce;fill-rule:nonzero;"/><path d="M145.154,156.154l-93.457,93.458c-6.46,6.459 -16.905,6.459 -23.296,-0l-15.531,-15.531c-6.459,-6.459 -6.459,-16.905 0,-23.295l66.245,-66.245l-66.245,-66.245c-6.459,-6.46 -6.459,-16.905 0,-23.296l15.462,-15.668c6.46,-6.459 16.905,-6.459 23.296,0l93.458,93.458c6.528,6.459 6.528,16.905 0.068,23.364Z" style="fill:#e8e3ce;fill-rule:nonzero;"/></svg>