<?xml version="1.0" encoding="UTF-8" standalone="no"?><!DOCTYPE svg PUBLIC "-//W3C//DTD SVG 1.1//EN" "http://www.w3.org/Graphics/SVG/1.1/DTD/svg11.dtd"><svg width="100%" height="100%" viewBox="0 0 253 289" version="1.1" xmlns="http://www.w3.org/2000/svg" xmlns:xlink="http://www.w3.org/1999/xlink" xml:space="preserve" xmlns:serif="http://www.serif.com/" style="fill-rule:evenodd;clip-rule:evenodd;stroke-linejoin:round;stroke-miterlimit:2;"><path d="M9.029,80.134l234.758,-0c4.987,-0 9.029,-4.043 9.029,-9.029l-0,-28.217c-0,-4.986 -4.042,-9.029 -9.029,-9.029l-234.758,0c-4.987,0 -9.029,4.043 -9.029,9.029l0,28.216c0,4.987 4.042,9.03 9.029,9.03Zm0,87.469l234.758,0c4.987,0 9.029,-4.042 9.029,-9.029l-0,-28.216c-0,-4.987 -4.042,-9.029 -9.029,-9.029l-234.758,0c-4.987,0 -9.029,4.042 -9.029,9.029l0,28.216c0,4.987 4.042,9.029 9.029,9.029Zm0,87.47l234.758,0c4.987,0 9.029,-4.042 9.029,-9.029l-0,-28.216c-0,-4.987 -4.042,-9.029 -9.029,-9.029l-234.758,-0c-4.987,-0 -9.029,4.042 -9.029,9.029l0,28.216c0,4.987 4.042,9.029 9.029,9.029Z" style="fill:#e8e3ce;fill-rule:nonzero;"/></svg>