<?xml version="1.0" encoding="UTF-8" standalone="no"?>
<!DOCTYPE svg PUBLIC "-//W3C//DTD SVG 1.1//EN" "http://www.w3.org/Graphics/SVG/1.1/DTD/svg11.dtd">
<svg width="100%" height="100%" viewBox="0 0 164 164" version="1.1" xmlns="http://www.w3.org/2000/svg" xmlns:xlink="http://www.w3.org/1999/xlink" xml:space="preserve" xmlns:serif="http://www.serif.com/" style="fill-rule:evenodd;clip-rule:evenodd;stroke-linejoin:round;stroke-miterlimit:2;">
    <g transform="matrix(2.18667,0,0,2.12987,-13.12,-25.5584)">
        <path d="M43.5,12C64.197,12 81,29.251 81,50.5C81,71.749 64.197,89 43.5,89C22.803,89 6,71.749 6,50.5C6,29.251 22.803,12 43.5,12ZM19.543,40.704C19.543,43.879 20.161,46.454 20.925,46.454C21.688,46.454 22.306,43.879 22.306,40.704C22.306,37.529 21.688,34.955 20.925,34.955C20.161,34.955 19.543,37.529 19.543,40.704ZM64.694,40.704C64.694,43.879 65.312,46.454 66.075,46.454C66.839,46.454 67.457,43.879 67.457,40.704C67.457,37.529 66.839,34.955 66.075,34.955C65.312,34.955 64.694,37.529 64.694,40.704ZM59.729,33.409C59.011,28.862 57.842,25.904 56.528,25.904C54.964,25.904 53.608,30.085 52.968,36.156C52.338,31.737 51.387,28.92 50.322,28.92C48.828,28.92 47.559,34.461 47.087,42.189C46.203,38.229 44.922,35.741 43.504,35.741C42.085,35.741 40.804,38.227 39.919,42.189C39.448,34.461 38.178,28.92 36.684,28.92C35.617,28.92 34.665,31.737 34.037,36.156C33.396,30.085 32.04,25.904 30.476,25.904C29.158,25.904 27.993,28.86 27.275,33.409C26.827,30.773 26.182,29.109 25.459,29.109C24.114,29.109 23.024,34.867 23.024,41.969C23.024,49.072 24.114,54.829 25.459,54.829C26.011,54.829 26.523,53.856 26.929,52.213C27.577,58.212 28.922,62.333 30.476,62.333C31.682,62.333 32.759,59.856 33.485,55.951C33.983,63.378 35.226,68.648 36.682,68.648C37.601,68.648 38.434,66.56 39.046,63.16C39.785,70.18 41.502,75.096 43.501,75.096C45.499,75.096 47.213,70.178 47.955,63.16C48.572,66.56 49.405,68.648 50.319,68.648C51.775,68.648 53.021,63.378 53.517,55.951C54.242,59.856 55.322,62.333 56.525,62.333C58.081,62.333 59.424,58.21 60.072,52.213C60.481,53.852 60.99,54.829 61.542,54.829C62.887,54.829 63.977,49.072 63.977,41.969C63.977,34.867 62.888,29.114 61.545,29.109L61.543,29.109C60.823,29.112 60.172,30.771 59.729,33.409Z" style="fill:rgb(162,56,255);"/>
    </g>
</svg>
