<svg width="10" height="11" viewBox="0 0 10 11" fill="none" xmlns="http://www.w3.org/2000/svg">
<path d="M8.52274 2.36789C8.06089 1.90146 7.51143 1.5309 6.90593 1.27747C6.30043 1.02404 5.65083 0.892744 4.99443 0.891128C4.33804 0.889513 3.68779 1.01761 3.08105 1.26805C2.47432 1.5185 1.92304 1.88636 1.4589 2.3505C0.994756 2.81464 0.626896 3.36592 0.376451 3.97266C0.126006 4.5794 -0.00208874 5.22964 -0.000473188 5.88603C0.00114236 6.54243 0.132436 7.19203 0.385865 7.79753C0.639294 8.40303 1.00986 8.95249 1.47628 9.41434C1.93814 9.88076 2.48759 10.2513 3.09309 10.5048C3.69859 10.7582 4.3482 10.8895 5.00459 10.8911C5.66098 10.8927 6.31123 10.7646 6.91797 10.5142C7.52471 10.2637 8.07598 9.89587 8.54013 9.43173C9.00427 8.96758 9.37213 8.41631 9.62257 7.80957C9.87302 7.20283 10.0011 6.55259 9.9995 5.89619C9.99788 5.2398 9.86659 4.59019 9.61316 3.98469C9.35973 3.3792 8.98916 2.82974 8.52274 2.36789Z" fill="#F9A62A"/>
</svg>
