<svg width="53" height="82" viewBox="0 0 53 82" fill="none" xmlns="http://www.w3.org/2000/svg">
<path d="M22.0665 15L7.62396 27.1844C6.84748 28.0368 6.79571 28.7889 7.46866 29.4407C8.34867 30.2931 9.12516 30.3433 9.79811 29.5912L22.0665 19.2119L34.1796 29.5912C34.8526 30.3433 35.6291 30.2931 36.5091 29.4407C37.2338 28.7388 37.1561 27.9866 36.2761 27.1844L22.0665 15Z" fill="#F9A62A"/>
<path d="M22.3734 66.2401L36.816 54.0557C37.5925 53.2033 37.6442 52.4512 36.9713 51.7993C36.0913 50.9469 35.3148 50.8968 34.6418 51.6489L22.3734 62.0282L10.2603 51.6489C9.58737 50.8968 8.81089 50.9469 7.93088 51.7993C7.20616 52.5013 7.28381 53.2534 8.16382 54.0557L22.3734 66.2401Z" fill="#F9A62A"/>
</svg>
