<svg width="752" height="286" viewBox="0 0 752 286" fill="none" xmlns="http://www.w3.org/2000/svg">
<path d="M73.7871 97.8C73.7871 101.85 73.7871 112.05 72.4371 119.7C69.7371 134.25 60.7371 142.35 42.2871 142.35C25.4871 142.35 17.2371 135 13.9371 123.9C10.9371 114.3 9.73711 96.3 9.73711 80.55C9.73711 64.5 10.4871 54.75 13.1871 42C16.1871 27.75 25.7871 20.4 43.4871 20.4C61.9371 20.4 70.3371 29.4 72.4371 45.3C73.1871 51 73.6371 57.9 73.6371 65.25H52.3371C52.3371 59.7 51.8871 53.25 50.8371 47.25C50.2371 43.5 47.3871 40.95 43.0371 40.95C38.0871 40.95 35.3871 43.35 34.3371 47.55C32.9871 53.1 32.6871 63.6 32.6871 80.4C32.6871 93.45 32.9871 107.25 34.3371 114.75C35.3871 120.15 38.9871 122.25 43.0371 122.25C47.2371 122.25 50.8371 120.3 51.5871 114.3C52.3371 108.15 52.4871 100.5 52.4871 97.8H73.7871ZM111.571 20.4C129.871 20.4 138.721 28.05 142.021 43.05C143.521 50.1 144.121 59.85 144.121 80.1C144.121 99.75 143.521 107.85 141.721 118.5C139.171 133.35 130.171 142.35 111.571 142.35C93.2707 142.35 84.8707 133.8 81.7207 120.15C80.0707 112.95 79.1707 97.5 79.1707 80.85C79.1707 60.15 79.6207 51.3 81.1207 44.4C83.9707 31.35 91.9207 20.4 111.571 20.4ZM111.871 123.15C116.971 123.15 119.071 120.15 120.271 116.25C121.771 111.45 122.221 98.25 122.221 81.15C122.221 64.2 121.621 55.05 120.421 47.85C119.521 42 117.121 39.75 111.871 39.75C106.171 39.75 104.521 42.45 103.171 48C102.121 52.65 101.521 64.2 101.521 81.45C101.521 98.25 102.121 111.15 103.621 116.4C104.821 120.6 106.771 123.15 111.871 123.15ZM236.933 141H216.983L217.133 67.2L203.933 141H184.583L171.383 67.35L171.533 141H151.433V21.3H180.683L194.333 96.75L208.733 21.3H236.933V141ZM306.512 114C306.512 131.85 294.812 142.2 276.362 142.2C258.362 142.2 245.312 133.05 245.312 113.7C245.312 112.2 245.312 21.3 245.312 21.3H267.062C267.062 21.3 267.062 109.95 267.062 113.1C267.062 119.7 270.062 123.15 276.062 123.15C281.462 123.15 284.612 119.55 284.612 113.25C284.612 110.25 284.612 21.3 284.612 21.3H306.512C306.512 21.3 306.512 112.65 306.512 114ZM375.203 141H354.503L335.603 81.3V141H315.203V21.3H336.053L354.803 79.8V21.3H375.203V141ZM407.29 141H384.49V21.3H407.29V141ZM472.073 129.6C468.173 136.35 462.323 141 450.023 141H416.423V21.3H447.323C460.073 21.3 466.823 24.45 472.073 32.25C476.723 39 477.473 59.85 477.473 78.6C477.473 103.35 476.723 121.65 472.073 129.6ZM455.123 117.6C456.173 112.8 456.473 84.75 456.473 78.6C456.473 72.6 456.023 51 454.973 46.95C453.773 42 451.073 39.9 446.723 39.9H438.023V123.75H447.623C451.523 123.75 454.073 121.95 455.123 117.6ZM504.963 112.05L500.763 141H478.863L498.813 21.3H529.563L547.413 141H525.213L521.313 112.05H504.963ZM519.363 94.35C519.363 94.35 514.863 59.55 514.863 58.95C514.263 52.65 513.813 40.8 513.813 40.8C513.813 40.8 513.063 52.5 512.463 58.95C512.463 59.55 507.063 94.35 507.063 94.35H519.363ZM607.718 129.6C603.818 136.35 597.968 141 585.668 141H552.068V21.3H582.968C595.718 21.3 602.468 24.45 607.718 32.25C612.368 39 613.118 59.85 613.118 78.6C613.118 103.35 612.368 121.65 607.718 129.6ZM590.768 117.6C591.818 112.8 592.118 84.75 592.118 78.6C592.118 72.6 591.668 51 590.618 46.95C589.418 42 586.718 39.9 582.368 39.9H573.668V123.75H583.268C587.168 123.75 589.718 121.95 590.768 117.6ZM673.576 141H620.476V21.3H673.276V41.85H642.376V70.95H671.176V90.45H642.376V120.75H673.576V141ZM389.891 141.4C408.191 141.4 417.041 149.05 420.341 164.05C421.841 171.1 422.441 180.85 422.441 201.1C422.441 220.75 421.841 228.85 420.041 239.5C417.491 254.35 408.491 263.35 389.891 263.35C371.591 263.35 363.191 254.8 360.041 241.15C358.391 233.95 357.491 218.5 357.491 201.85C357.491 181.15 357.941 172.3 359.441 165.4C362.291 152.35 370.241 141.4 389.891 141.4ZM390.191 244.15C395.291 244.15 397.391 241.15 398.591 237.25C400.091 232.45 400.541 219.25 400.541 202.15C400.541 185.2 399.941 176.05 398.741 168.85C397.841 163 395.441 160.75 390.191 160.75C384.491 160.75 382.841 163.45 381.491 169C380.441 173.65 379.841 185.2 379.841 202.45C379.841 219.25 380.441 232.15 381.941 237.4C383.141 241.6 385.091 244.15 390.191 244.15ZM482.704 162.85H451.654V191.95H480.304V212.05H451.654V262H429.754V142.3H482.704V162.85ZM511.147 262H488.347V142.3H511.147V262ZM582.381 218.8C582.381 222.85 582.381 233.05 581.031 240.7C578.331 255.25 569.331 263.35 550.881 263.35C534.081 263.35 525.831 256 522.531 244.9C519.531 235.3 518.331 217.3 518.331 201.55C518.331 185.5 519.081 175.75 521.781 163C524.781 148.75 534.381 141.4 552.081 141.4C570.531 141.4 578.931 150.4 581.031 166.3C581.781 172 582.231 178.9 582.231 186.25H560.931C560.931 180.7 560.481 174.25 559.431 168.25C558.831 164.5 555.981 161.95 551.631 161.95C546.681 161.95 543.981 164.35 542.931 168.55C541.581 174.1 541.281 184.6 541.281 201.4C541.281 214.45 541.581 228.25 542.931 235.75C543.981 241.15 547.581 243.25 551.631 243.25C555.831 243.25 559.431 241.3 560.181 235.3C560.931 229.15 561.081 221.5 561.081 218.8H582.381ZM611.929 262H589.129V142.3H611.929V262ZM642.512 233.05L638.312 262H616.412L636.362 142.3H667.112L684.962 262H662.762L658.862 233.05H642.512ZM656.912 215.35C656.912 215.35 652.412 180.55 652.412 179.95C651.812 173.65 651.362 161.8 651.362 161.8C651.362 161.8 650.612 173.5 650.012 179.95C650.012 180.55 644.612 215.35 644.612 215.35H656.912ZM743.167 262H689.617V142.3H711.517V241.75H743.167V262Z" fill="#E8E3CE"/>
<path d="M5.28027 2.78H2.56527V7.58H5.08527V8.315H2.56527V14H1.80027V2.03H5.28027V2.78ZM20.0394 10.19C20.0394 13.04 19.4394 14.09 18.0144 14.09C17.1294 14.09 16.4544 13.79 16.1244 12.62C15.8694 11.705 15.7794 10.25 15.7794 7.925C15.7794 5.63 15.8394 4.19 16.1094 3.29C16.4094 2.27 16.9944 1.97 17.9244 1.97C19.6044 1.97 20.0094 3.005 20.0094 5.87H19.1994C19.1994 3.56 19.0644 2.765 17.9094 2.765C16.7694 2.765 16.5894 3.68 16.5894 7.94C16.5894 12.365 16.8744 13.325 17.9694 13.325C18.8994 13.325 19.2594 12.8 19.2594 10.19H20.0394ZM34.3455 12.5C34.1955 13.385 33.7305 14.075 32.6055 14.075C31.5405 14.075 30.9105 13.655 30.8055 12.275C30.7305 11.285 30.7005 9.14 30.7005 8C30.7005 6.905 30.7005 4.73 30.7455 4.175C30.8355 2.78 31.3455 1.955 32.5605 1.955C33.7455 1.955 34.2105 2.645 34.3155 3.5C34.3455 3.845 34.3455 4.52 34.3455 4.76H33.6105C33.6105 4.52 33.5955 4.025 33.5955 3.875C33.5355 3.14 33.3405 2.69 32.5605 2.69C31.8105 2.69 31.5405 3.17 31.4805 4.13C31.4655 4.73 31.4505 7.235 31.4505 7.595C31.6455 7.04 32.2455 6.755 32.9205 6.755C33.7755 6.755 34.2555 7.31 34.3755 7.925C34.4655 8.99 34.4505 11.81 34.3455 12.5ZM33.6105 12.35C33.6705 11.84 33.6855 8.78 33.6405 8.285C33.5805 7.88 33.3555 7.475 32.7255 7.475C31.9755 7.475 31.5255 7.895 31.4355 8.525C31.4355 9.26 31.5105 11.81 31.5405 12.23C31.5855 13.07 32.0055 13.385 32.5905 13.385C33.1755 13.385 33.5355 13.13 33.6105 12.35ZM48.0644 8.435H44.8544V7.625H48.0644V8.435ZM61.9624 14H58.1974V13.295C58.9324 10.835 61.0774 8.45 61.1524 5.315C61.1524 5.075 61.1674 4.115 61.1524 3.935C61.1074 2.93 60.7024 2.69 60.0874 2.69C59.5024 2.69 59.0374 2.975 59.0074 3.845C58.9924 4.01 59.0074 5.18 59.0074 5.45H58.2574C58.2574 5.225 58.2574 4.07 58.2574 3.845C58.2874 2.765 58.8724 1.955 60.1474 1.955C61.4374 1.955 61.8724 2.765 61.9174 3.83C61.9324 4.01 61.9174 5.165 61.9174 5.405C61.8574 8.525 59.7724 10.895 58.9774 13.28H61.9624V14ZM74.7544 14H73.9744V3.365L72.4444 3.485V2.885C73.5244 2.705 74.0044 2.525 74.2594 2.015H74.7544V14ZM88.7431 8.435H85.5331V7.625H88.7431V8.435ZM103.295 5.54C103.295 6.965 103.22 7.79 102.92 8.255C102.62 8.705 102.185 8.96 101.54 9.005C101.3 9.035 100.28 9.02 100.28 9.02V14H99.5151V2.03H101.57C102.26 2.03 102.665 2.3 102.935 2.78C103.145 3.155 103.295 4.1 103.295 5.54ZM102.485 5.555C102.485 4.295 102.365 3.56 102.275 3.305C102.14 2.975 101.765 2.795 101.345 2.795H100.28V8.27C100.28 8.27 101.195 8.27 101.315 8.27C101.855 8.27 102.14 8.06 102.29 7.73C102.41 7.445 102.485 6.77 102.485 5.555ZM117.997 13.1C117.787 13.625 117.427 14 116.572 14H114.247V2.03H116.362C117.187 2.03 117.622 2.39 117.817 2.81C118.012 3.215 118.072 4.04 118.072 4.985C118.072 5.615 117.997 6.59 117.922 6.995C117.832 7.49 117.607 7.775 117.262 7.88C117.682 7.955 117.937 8.225 118.087 8.675C118.237 9.11 118.252 10.115 118.252 10.745C118.252 11.465 118.207 12.56 117.997 13.1ZM117.277 5.09C117.277 4.445 117.232 3.89 117.142 3.44C117.052 3.02 116.767 2.75 116.347 2.75H114.997V7.535H116.602C116.812 7.535 117.082 7.295 117.142 7.025C117.232 6.605 117.277 5.855 117.277 5.09ZM117.307 12.755C117.442 12.395 117.457 11.21 117.457 10.7C117.457 10.175 117.427 9.305 117.322 8.825C117.232 8.435 116.962 8.27 116.662 8.27H114.997V13.28H116.542C116.947 13.28 117.187 13.085 117.307 12.755ZM131.985 8.435H128.775V7.625H131.985V8.435ZM145.378 2.705L143.113 14H142.288L144.643 2.78H141.733V2.03H145.378V2.705ZM157.703 1.955C158.933 1.955 159.473 2.765 159.533 3.905C159.593 5.12 159.593 7.025 159.593 8C159.593 8.96 159.623 10.955 159.563 11.96C159.473 13.475 158.798 14.075 157.688 14.075C156.548 14.075 155.948 13.52 155.858 11.96C155.813 11.27 155.798 9.095 155.798 8C155.798 6.83 155.783 4.985 155.858 3.905C155.933 2.735 156.503 1.955 157.703 1.955ZM158.828 7.94C158.828 6.455 158.798 4.505 158.768 3.86C158.723 3.14 158.363 2.69 157.688 2.69C156.968 2.69 156.683 3.185 156.623 3.875C156.578 4.565 156.563 6.965 156.563 7.985C156.563 9.125 156.548 10.91 156.638 12.305C156.683 12.965 157.058 13.37 157.703 13.37C158.363 13.37 158.723 12.98 158.768 12.305C158.843 11.06 158.828 9.155 158.828 7.94ZM174.404 14H173.864L173.729 13.445C173.624 13.715 173.189 14.09 172.454 14.09C171.509 14.09 170.894 13.7 170.654 12.74C170.414 11.765 170.384 9.755 170.384 8C170.384 6.41 170.444 4.355 170.594 3.575C170.774 2.585 171.404 1.955 172.439 1.955C173.534 1.955 174.029 2.6 174.194 3.32C174.329 3.965 174.359 5.135 174.359 5.705H173.594C173.594 5.3 173.534 4.28 173.429 3.65C173.324 3.035 172.979 2.75 172.454 2.75C171.914 2.75 171.524 3.05 171.389 3.725C171.254 4.43 171.179 6.89 171.179 8.03C171.179 9.17 171.284 11.93 171.419 12.5C171.539 13.085 171.869 13.43 172.454 13.43C173.159 13.43 173.549 12.965 173.639 12.275C173.669 11.915 173.654 8.66 173.654 8.615H172.169V7.88H174.404V14ZM187.019 1.955C188.249 1.955 188.789 2.765 188.849 3.905C188.909 5.12 188.909 7.025 188.909 8C188.909 8.96 188.939 10.955 188.879 11.96C188.789 13.475 188.114 14.075 187.004 14.075C185.864 14.075 185.264 13.52 185.174 11.96C185.129 11.27 185.114 9.095 185.114 8C185.114 6.83 185.099 4.985 185.174 3.905C185.249 2.735 185.819 1.955 187.019 1.955ZM188.144 7.94C188.144 6.455 188.114 4.505 188.084 3.86C188.039 3.14 187.679 2.69 187.004 2.69C186.284 2.69 185.999 3.185 185.939 3.875C185.894 4.565 185.879 6.965 185.879 7.985C185.879 9.125 185.864 10.91 185.954 12.305C185.999 12.965 186.374 13.37 187.019 13.37C187.679 13.37 188.039 12.98 188.084 12.305C188.159 11.06 188.144 9.155 188.144 7.94ZM203.3 14H199.535V13.295C200.27 10.835 202.415 8.45 202.49 5.315C202.49 5.075 202.505 4.115 202.49 3.935C202.445 2.93 202.04 2.69 201.425 2.69C200.84 2.69 200.375 2.975 200.345 3.845C200.33 4.01 200.345 5.18 200.345 5.45H199.595C199.595 5.225 199.595 4.07 199.595 3.845C199.625 2.765 200.21 1.955 201.485 1.955C202.775 1.955 203.21 2.765 203.255 3.83C203.27 4.01 203.255 5.165 203.255 5.405C203.195 8.525 201.11 10.895 200.315 13.28H203.3V14ZM216.047 7.55C216.917 7.64 217.442 8.15 217.547 9.155C217.607 9.98 217.622 11.63 217.562 12.305C217.457 13.505 216.767 14.075 215.672 14.075C214.472 14.075 213.872 13.565 213.797 12.575C213.737 11.795 213.752 10.685 213.752 10.58H214.502C214.502 10.67 214.502 11.825 214.562 12.47C214.577 13.115 215.027 13.385 215.657 13.385C216.317 13.385 216.752 12.995 216.782 12.245C216.827 11.075 216.812 9.77 216.767 9.335C216.692 8.63 216.347 8.09 215.462 8C215.447 8 214.727 7.97 214.727 7.97V7.235C214.727 7.235 215.387 7.205 215.402 7.205C216.227 7.085 216.572 6.665 216.602 5.885C216.632 4.985 216.692 4.46 216.617 3.56C216.572 2.975 216.227 2.69 215.672 2.69C215.057 2.69 214.742 3.05 214.697 3.65C214.682 4.04 214.667 5.195 214.667 5.27H213.932C213.932 5.18 213.947 3.965 213.962 3.605C214.037 2.615 214.652 1.955 215.672 1.955C216.842 1.955 217.307 2.645 217.367 3.59C217.427 4.475 217.382 4.985 217.337 5.87C217.292 6.755 216.842 7.46 216.047 7.55ZM231.165 8.435H227.955V7.625H231.165V8.435ZM243.572 1.955C244.802 1.955 245.342 2.765 245.402 3.905C245.462 5.12 245.462 7.025 245.462 8C245.462 8.96 245.492 10.955 245.432 11.96C245.342 13.475 244.667 14.075 243.557 14.075C242.417 14.075 241.817 13.52 241.727 11.96C241.682 11.27 241.667 9.095 241.667 8C241.667 6.83 241.652 4.985 241.727 3.905C241.802 2.735 242.372 1.955 243.572 1.955ZM244.697 7.94C244.697 6.455 244.667 4.505 244.637 3.86C244.592 3.14 244.232 2.69 243.557 2.69C242.837 2.69 242.552 3.185 242.492 3.875C242.447 4.565 242.432 6.965 242.432 7.985C242.432 9.125 242.417 10.91 242.507 12.305C242.552 12.965 242.927 13.37 243.572 13.37C244.232 13.37 244.592 12.98 244.637 12.305C244.712 11.06 244.697 9.155 244.697 7.94ZM258.353 14H257.573V3.365L256.043 3.485V2.885C257.123 2.705 257.603 2.525 257.858 2.015H258.353V14ZM271.341 14H270.561V3.365L269.031 3.485V2.885C270.111 2.705 270.591 2.525 270.846 2.015H271.341V14Z" fill="#E8E3CE"/>
<path d="M638.489 270.78H635.774V275.58H638.294V276.315H635.774V282H635.009V270.03H638.489V270.78ZM654.508 282H653.788V275.145L653.803 272.565L652.183 282H651.433L649.903 272.565L649.918 275.145V282H649.213V270.03H650.203L651.838 280.095L653.533 270.03H654.508V282ZM679.745 275.55C680.615 275.64 681.14 276.15 681.245 277.155C681.305 277.98 681.32 279.63 681.26 280.305C681.155 281.505 680.465 282.075 679.37 282.075C678.17 282.075 677.57 281.565 677.495 280.575C677.435 279.795 677.45 278.685 677.45 278.58H678.2C678.2 278.67 678.2 279.825 678.26 280.47C678.275 281.115 678.725 281.385 679.355 281.385C680.015 281.385 680.45 280.995 680.48 280.245C680.525 279.075 680.51 277.77 680.465 277.335C680.39 276.63 680.045 276.09 679.16 276C679.145 276 678.425 275.97 678.425 275.97V275.235C678.425 275.235 679.085 275.205 679.1 275.205C679.925 275.085 680.27 274.665 680.3 273.885C680.33 272.985 680.39 272.46 680.315 271.56C680.27 270.975 679.925 270.69 679.37 270.69C678.755 270.69 678.44 271.05 678.395 271.65C678.38 272.04 678.365 273.195 678.365 273.27H677.63C677.63 273.18 677.645 271.965 677.66 271.605C677.735 270.615 678.35 269.955 679.37 269.955C680.54 269.955 681.005 270.645 681.065 271.59C681.125 272.475 681.08 272.985 681.035 273.87C680.99 274.755 680.54 275.46 679.745 275.55ZM693.812 269.955C695.042 269.955 695.582 270.765 695.642 271.905C695.702 273.12 695.702 275.025 695.702 276C695.702 276.96 695.732 278.955 695.672 279.96C695.582 281.475 694.907 282.075 693.797 282.075C692.657 282.075 692.057 281.52 691.967 279.96C691.922 279.27 691.907 277.095 691.907 276C691.907 274.83 691.892 272.985 691.967 271.905C692.042 270.735 692.612 269.955 693.812 269.955ZM694.937 275.94C694.937 274.455 694.907 272.505 694.877 271.86C694.832 271.14 694.472 270.69 693.797 270.69C693.077 270.69 692.792 271.185 692.732 271.875C692.687 272.565 692.672 274.965 692.672 275.985C692.672 277.125 692.657 278.91 692.747 280.305C692.792 280.965 693.167 281.37 693.812 281.37C694.472 281.37 694.832 280.98 694.877 280.305C694.952 279.06 694.937 277.155 694.937 275.94ZM709.403 276.435H706.193V275.625H709.403V276.435ZM721.406 282H720.626V271.365L719.096 271.485V270.885C720.176 270.705 720.656 270.525 720.911 270.015H721.406V282ZM736.114 280.41C735.934 281.52 735.349 282.075 734.254 282.075C733.114 282.075 732.514 281.4 732.409 280.41C732.304 279.42 732.304 277.575 732.424 276.705C732.514 275.955 733.054 275.565 733.369 275.46C733.024 275.325 732.694 275.085 732.619 274.185C732.574 273.585 732.499 272.085 732.619 271.38C732.754 270.54 733.249 269.955 734.254 269.955C735.304 269.955 735.859 270.525 735.919 271.35C735.964 272.01 735.949 273.345 735.889 274.17C735.829 274.98 735.499 275.325 735.154 275.46C735.559 275.565 736.024 276 736.114 276.72C736.219 277.395 736.219 279.915 736.114 280.41ZM735.169 274.41C735.229 273.54 735.229 272.07 735.154 271.455C735.094 270.96 734.764 270.66 734.269 270.66C733.699 270.66 733.429 270.99 733.354 271.455C733.249 272.115 733.264 273.57 733.354 274.41C733.399 274.86 733.789 275.13 734.254 275.13C734.704 275.13 735.139 274.86 735.169 274.41ZM735.349 280.47C735.424 279.48 735.379 277.2 735.349 276.78C735.304 276.165 734.839 275.82 734.254 275.82C733.684 275.82 733.189 276.18 733.129 276.855C733.084 277.395 733.084 279.48 733.129 280.305C733.159 281.055 733.639 281.385 734.239 281.385C734.839 281.385 735.304 281.085 735.349 280.47ZM750.944 278.97H750.014V282H749.279V278.97H746.624V278.13L749.099 270.015H750.014V278.25H750.944V278.97ZM749.279 278.25V271.725L747.314 278.25H749.279Z" fill="#E8E3CE"/>
<line x1="1.0094" y1="141.5" x2="751.009" y2="143.513" stroke="#E8E3CE" stroke-width="7"/>
</svg>
