<svg width="536" height="230" viewBox="0 0 536 230" fill="none" xmlns="http://www.w3.org/2000/svg">
<path d="M54.4144 77.4487C54.4144 80.6844 54.4144 88.8335 53.3358 94.9454C51.1787 106.57 43.9883 113.041 29.248 113.041C15.8259 113.041 9.23464 107.169 6.59816 98.3009C4.20136 90.6311 3.24263 76.2503 3.24263 63.6671C3.24263 50.8442 3.84184 43.0546 5.99896 32.8682C8.39576 21.4833 16.0655 15.6112 30.2067 15.6112C44.947 15.6112 51.6581 22.8016 53.3358 35.5047C53.935 40.0586 54.2946 45.5712 54.2946 51.4434H37.2773C37.2773 47.0093 36.9177 41.8562 36.0789 37.0626C35.5995 34.0666 33.3225 32.0293 29.8472 32.0293C25.8924 32.0293 23.7353 33.9467 22.8964 37.3023C21.8179 41.7363 21.5782 50.1252 21.5782 63.5473C21.5782 73.9734 21.8179 84.9987 22.8964 90.9907C23.7353 95.3049 26.6115 96.9827 29.8472 96.9827C33.2027 96.9827 36.0789 95.4248 36.6781 90.6311C37.2773 85.7177 37.3971 79.6058 37.3971 77.4487H54.4144ZM84.601 15.6112C99.2215 15.6112 106.292 21.723 108.929 33.707C110.127 39.3395 110.606 47.1292 110.606 63.3076C110.606 79.0066 110.127 85.478 108.689 93.9867C106.652 105.851 99.4612 113.041 84.601 113.041C69.9805 113.041 63.2695 106.21 60.7528 95.3049C59.4346 89.5526 58.7155 77.209 58.7155 63.9068C58.7155 47.3688 59.0751 40.2983 60.2735 34.7856C62.5504 24.3595 68.902 15.6112 84.601 15.6112ZM84.8407 97.7017C88.9153 97.7017 90.593 95.3049 91.5518 92.1891C92.7502 88.3542 93.1097 77.8082 93.1097 64.1465C93.1097 50.6045 92.6303 43.2943 91.6716 37.5419C90.9526 32.8682 89.0351 31.0706 84.8407 31.0706C80.2868 31.0706 78.9685 33.2277 77.89 37.6618C77.0511 41.3768 76.5717 50.6045 76.5717 64.3861C76.5717 77.8082 77.0511 88.1145 78.2495 92.3089C79.2082 95.6644 80.7661 97.7017 84.8407 97.7017ZM184.757 111.963H168.819L168.939 53.0013L158.393 111.963H142.933L132.387 53.1212L132.507 111.963H116.449V16.3302H139.817L150.723 76.6098L162.228 16.3302H184.757V111.963ZM240.346 90.3915C240.346 104.652 230.999 112.921 216.259 112.921C201.878 112.921 191.452 105.611 191.452 90.1518C191.452 88.9534 191.452 16.3302 191.452 16.3302H208.829C208.829 16.3302 208.829 87.1558 208.829 89.6724C208.829 94.9454 211.225 97.7017 216.019 97.7017C220.333 97.7017 222.85 94.8256 222.85 89.7923C222.85 87.3955 222.85 16.3302 222.85 16.3302H240.346C240.346 16.3302 240.346 89.3129 240.346 90.3915ZM295.226 111.963H278.688L263.588 64.2663V111.963H247.29V16.3302H263.948L278.928 63.0679V16.3302H295.226V111.963ZM320.861 111.963H302.646V16.3302H320.861V111.963ZM372.619 102.855C369.503 108.248 364.83 111.963 355.003 111.963H328.158V16.3302H352.846C363.032 16.3302 368.425 18.8469 372.619 25.0786C376.334 30.4714 376.933 47.1292 376.933 62.1092C376.933 81.8828 376.334 96.5033 372.619 102.855ZM359.077 93.2676C359.916 89.4327 360.156 67.0226 360.156 62.1092C360.156 57.3156 359.796 40.0586 358.957 36.8229C357.999 32.8682 355.842 31.1904 352.366 31.1904H345.415V98.1811H353.085C356.201 98.1811 358.238 96.743 359.077 93.2676ZM398.896 88.8335L395.54 111.963H378.044L393.983 16.3302H418.55L432.811 111.963H415.074L411.959 88.8335H398.896ZM410.401 74.6924C410.401 74.6924 406.805 46.8895 406.805 46.4101C406.326 41.3768 405.967 31.9094 405.967 31.9094C405.967 31.9094 405.367 41.257 404.888 46.4101C404.888 46.8895 400.574 74.6924 400.574 74.6924H410.401ZM480.99 102.855C477.874 108.248 473.201 111.963 463.374 111.963H436.53V16.3302H461.217C471.403 16.3302 476.796 18.8469 480.99 25.0786C484.705 30.4714 485.305 47.1292 485.305 62.1092C485.305 81.8828 484.705 96.5033 480.99 102.855ZM467.448 93.2676C468.287 89.4327 468.527 67.0226 468.527 62.1092C468.527 57.3156 468.167 40.0586 467.329 36.8229C466.37 32.8682 464.213 31.1904 460.737 31.1904H453.787V98.1811H461.456C464.572 98.1811 466.609 96.743 467.448 93.2676ZM533.607 111.963H491.183V16.3302H533.367V32.7483H508.68V55.9973H531.689V71.5766H508.68V95.7843H533.607V111.963ZM204.558 112.611C219.179 112.611 226.249 118.723 228.886 130.707C230.084 136.34 230.564 144.129 230.564 160.308C230.564 176.007 230.084 182.478 228.646 190.987C226.609 202.851 219.418 210.041 204.558 210.041C189.938 210.041 183.227 203.21 180.71 192.305C179.392 186.553 178.673 174.209 178.673 160.907C178.673 144.369 179.032 137.298 180.231 131.786C182.508 121.36 188.859 112.611 204.558 112.611ZM204.798 194.702C208.873 194.702 210.55 192.305 211.509 189.189C212.707 185.354 213.067 174.808 213.067 161.146C213.067 147.605 212.588 140.294 211.629 134.542C210.91 129.868 208.992 128.071 204.798 128.071C200.244 128.071 198.926 130.228 197.847 134.662C197.008 138.377 196.529 147.605 196.529 161.386C196.529 174.808 197.008 185.115 198.207 189.309C199.165 192.664 200.723 194.702 204.798 194.702ZM278.709 129.748H253.902V152.997H276.792V169.056H253.902V208.963H236.406V113.33H278.709V129.748ZM301.434 208.963H283.218V113.33H301.434V208.963ZM358.345 174.449C358.345 177.684 358.345 185.834 357.267 191.945C355.109 203.57 347.919 210.041 333.179 210.041C319.757 210.041 313.165 204.169 310.529 195.301C308.132 187.631 307.173 173.25 307.173 160.667C307.173 147.844 307.773 140.055 309.93 129.868C312.326 118.483 319.996 112.611 334.137 112.611C348.878 112.611 355.589 119.802 357.267 132.505C357.866 137.059 358.225 142.571 358.225 148.443H341.208C341.208 144.009 340.848 138.856 340.01 134.063C339.53 131.067 337.253 129.029 333.778 129.029C329.823 129.029 327.666 130.947 326.827 134.302C325.749 138.736 325.509 147.125 325.509 160.547C325.509 170.973 325.749 181.999 326.827 187.991C327.666 192.305 330.542 193.983 333.778 193.983C337.133 193.983 340.01 192.425 340.609 187.631C341.208 182.718 341.328 176.606 341.328 174.449H358.345ZM381.952 208.963H363.736V113.33H381.952V208.963ZM406.386 185.834L403.031 208.963H385.534L401.473 113.33H426.04L440.301 208.963H422.564L419.449 185.834H406.386ZM417.891 171.692C417.891 171.692 414.295 143.889 414.295 143.41C413.816 138.377 413.457 128.909 413.457 128.909C413.457 128.909 412.857 138.257 412.378 143.41C412.378 143.889 408.064 171.692 408.064 171.692H417.891ZM486.803 208.963H444.02V113.33H461.516V192.784H486.803V208.963Z" fill="#E8E3CE"/>
<path d="M8.2191 2.03595H6.04999V5.87084H8.06331V6.45806H6.04999V11H5.43881V1.43675H8.2191V2.03595ZM20.0107 7.95606C20.0107 10.233 19.5313 11.0719 18.3928 11.0719C17.6858 11.0719 17.1465 10.8322 16.8828 9.89747C16.6791 9.16644 16.6072 8.00399 16.6072 6.14647C16.6072 4.31292 16.6551 3.16245 16.8708 2.44341C17.1105 1.62849 17.5779 1.38881 18.3209 1.38881C19.6631 1.38881 19.9867 2.21571 19.9867 4.50466H19.3396C19.3396 2.65912 19.2317 2.02397 18.3089 2.02397C17.3981 2.02397 17.2543 2.75499 17.2543 6.15846C17.2543 9.69374 17.482 10.4607 18.3569 10.4607C19.0999 10.4607 19.3875 10.0413 19.3875 7.95606H20.0107ZM31.4404 9.8016C31.3205 10.5087 30.949 11.0599 30.0502 11.0599C29.1993 11.0599 28.696 10.7244 28.6121 9.62184C28.5522 8.83089 28.5282 7.11718 28.5282 6.20639C28.5282 5.33156 28.5282 3.59387 28.5642 3.15047C28.6361 2.03595 29.0436 1.37683 30.0143 1.37683C30.961 1.37683 31.3325 1.9281 31.4164 2.61118C31.4404 2.88682 31.4404 3.4261 31.4404 3.61784H30.8531C30.8531 3.4261 30.8412 3.03063 30.8412 2.91079C30.7932 2.32357 30.6374 1.96405 30.0143 1.96405C29.4151 1.96405 29.1993 2.34754 29.1514 3.11451C29.1394 3.59387 29.1274 5.59521 29.1274 5.88282C29.2832 5.43941 29.7626 5.21172 30.3019 5.21172C30.985 5.21172 31.3685 5.65513 31.4643 6.14647C31.5362 6.99734 31.5242 9.25033 31.4404 9.8016ZM30.8531 9.68176C30.9011 9.2743 30.9131 6.82956 30.8771 6.43409C30.8292 6.11052 30.6494 5.78695 30.1461 5.78695C29.5469 5.78695 29.1874 6.1225 29.1155 6.62583C29.1155 7.21305 29.1754 9.25033 29.1993 9.58589C29.2353 10.257 29.5708 10.5087 30.0382 10.5087C30.5056 10.5087 30.7932 10.3049 30.8531 9.68176ZM42.4008 6.55393H39.8362V5.90679H42.4008V6.55393ZM53.5044 11H50.4964V10.4368C51.0836 8.47137 52.7973 6.56591 52.8573 4.06125C52.8573 3.86951 52.8693 3.10253 52.8573 2.95872C52.8213 2.15579 52.4977 1.96405 52.0064 1.96405C51.539 1.96405 51.1675 2.19174 51.1436 2.88682C51.1316 3.01864 51.1436 3.9534 51.1436 4.16911H50.5444C50.5444 3.98935 50.5444 3.06658 50.5444 2.88682C50.5683 2.02397 51.0357 1.37683 52.0543 1.37683C53.085 1.37683 53.4325 2.02397 53.4685 2.87483C53.4804 3.01864 53.4685 3.94141 53.4685 4.13316C53.4205 6.62583 51.7547 8.51931 51.1196 10.4248H53.5044V11ZM63.7244 11H63.1012V2.50333L61.8788 2.5992V2.11984C62.7417 1.97603 63.1252 1.83222 63.3289 1.42477H63.7244V11ZM74.9004 6.55393H72.3359V5.90679H74.9004V6.55393ZM86.5266 4.24101C86.5266 5.37949 86.4666 6.03861 86.227 6.41012C85.9873 6.76964 85.6397 6.97337 85.1244 7.00932C84.9327 7.03329 84.1178 7.0213 84.1178 7.0213V11H83.5066V1.43675H85.1484C85.6997 1.43675 86.0232 1.65246 86.2389 2.03595C86.4067 2.33555 86.5266 3.09055 86.5266 4.24101ZM85.8794 4.253C85.8794 3.24634 85.7836 2.65912 85.7117 2.45539C85.6038 2.19174 85.3042 2.04794 84.9686 2.04794H84.1178V6.4221C84.1178 6.4221 84.8488 6.4221 84.9447 6.4221C85.3761 6.4221 85.6038 6.25433 85.7236 5.99068C85.8195 5.76298 85.8794 5.2237 85.8794 4.253ZM98.2721 10.281C98.1043 10.7004 97.8167 11 97.1336 11H95.2761V1.43675H96.9658C97.6249 1.43675 97.9725 1.72437 98.1283 2.05992C98.284 2.38349 98.332 3.04261 98.332 3.7976C98.332 4.30093 98.2721 5.07989 98.2121 5.40346C98.1402 5.79893 97.9605 6.02663 97.6848 6.11052C98.0204 6.17044 98.2241 6.38615 98.344 6.74567C98.4638 7.09321 98.4758 7.89614 98.4758 8.39947C98.4758 8.9747 98.4398 9.84953 98.2721 10.281ZM97.6968 3.88149C97.6968 3.36618 97.6609 2.92277 97.589 2.56325C97.5171 2.2277 97.2894 2.01198 96.9538 2.01198H95.8753V5.83489H97.1575C97.3253 5.83489 97.541 5.64314 97.589 5.42743C97.6609 5.09188 97.6968 4.49268 97.6968 3.88149ZM97.7208 10.0053C97.8287 9.71771 97.8406 8.77097 97.8406 8.36352C97.8406 7.94407 97.8167 7.249 97.7328 6.86551C97.6609 6.55393 97.4452 6.4221 97.2055 6.4221H95.8753V10.4248H97.1096C97.4332 10.4248 97.6249 10.269 97.7208 10.0053ZM109.448 6.55393H106.884V5.90679H109.448V6.55393ZM120.148 1.97603L118.338 11H117.679L119.561 2.03595H117.236V1.43675H120.148V1.97603ZM129.995 1.37683C130.977 1.37683 131.409 2.02397 131.457 2.93475C131.505 3.90546 131.505 5.42743 131.505 6.20639C131.505 6.97337 131.529 8.56724 131.481 9.37017C131.409 10.5806 130.87 11.0599 129.983 11.0599C129.072 11.0599 128.593 10.6165 128.521 9.37017C128.485 8.81891 128.473 7.08122 128.473 6.20639C128.473 5.27164 128.461 3.7976 128.521 2.93475C128.581 2 129.036 1.37683 129.995 1.37683ZM130.894 6.15846C130.894 4.97204 130.87 3.41411 130.846 2.8988C130.81 2.32357 130.522 1.96405 129.983 1.96405C129.408 1.96405 129.18 2.35952 129.132 2.91079C129.096 3.46205 129.084 5.37949 129.084 6.19441C129.084 7.10519 129.072 8.53129 129.144 9.64581C129.18 10.1731 129.479 10.4967 129.995 10.4967C130.522 10.4967 130.81 10.1851 130.846 9.64581C130.906 8.65113 130.894 7.12916 130.894 6.15846ZM143.338 11H142.906L142.799 10.5566C142.715 10.7723 142.367 11.0719 141.78 11.0719C141.025 11.0719 140.534 10.7603 140.342 9.99334C140.15 9.21438 140.126 7.60852 140.126 6.20639C140.126 4.93608 140.174 3.29427 140.294 2.6711C140.438 1.88016 140.941 1.37683 141.768 1.37683C142.643 1.37683 143.038 1.89214 143.17 2.46738C143.278 2.98269 143.302 3.91744 143.302 4.37284H142.691C142.691 4.04927 142.643 3.23435 142.559 2.73102C142.475 2.23968 142.199 2.01198 141.78 2.01198C141.348 2.01198 141.037 2.25166 140.929 2.79094C140.821 3.35419 140.761 5.31957 140.761 6.23036C140.761 7.14114 140.845 9.3462 140.953 9.8016C141.049 10.269 141.313 10.5446 141.78 10.5446C142.343 10.5446 142.655 10.1731 142.727 9.62184C142.751 9.33422 142.739 6.73369 142.739 6.69774H141.552V6.11052H143.338V11ZM153.417 1.37683C154.399 1.37683 154.831 2.02397 154.879 2.93475C154.927 3.90546 154.927 5.42743 154.927 6.20639C154.927 6.97337 154.951 8.56724 154.903 9.37017C154.831 10.5806 154.292 11.0599 153.405 11.0599C152.494 11.0599 152.015 10.6165 151.943 9.37017C151.907 8.81891 151.895 7.08122 151.895 6.20639C151.895 5.27164 151.883 3.7976 151.943 2.93475C152.003 2 152.458 1.37683 153.417 1.37683ZM154.315 6.15846C154.315 4.97204 154.292 3.41411 154.268 2.8988C154.232 2.32357 153.944 1.96405 153.405 1.96405C152.829 1.96405 152.602 2.35952 152.554 2.91079C152.518 3.46205 152.506 5.37949 152.506 6.19441C152.506 7.10519 152.494 8.53129 152.566 9.64581C152.602 10.1731 152.901 10.4967 153.417 10.4967C153.944 10.4967 154.232 10.1851 154.268 9.64581C154.327 8.65113 154.315 7.12916 154.315 6.15846ZM166.424 11H163.416V10.4368C164.003 8.47137 165.717 6.56591 165.777 4.06125C165.777 3.86951 165.789 3.10253 165.777 2.95872C165.741 2.15579 165.417 1.96405 164.926 1.96405C164.459 1.96405 164.087 2.19174 164.063 2.88682C164.051 3.01864 164.063 3.9534 164.063 4.16911H163.464C163.464 3.98935 163.464 3.06658 163.464 2.88682C163.488 2.02397 163.955 1.37683 164.974 1.37683C166.005 1.37683 166.352 2.02397 166.388 2.87483C166.4 3.01864 166.388 3.94141 166.388 4.13316C166.34 6.62583 164.674 8.51931 164.039 10.4248H166.424V11ZM176.608 5.84687C177.303 5.91877 177.723 6.32623 177.807 7.12916C177.855 7.78828 177.866 9.10652 177.819 9.64581C177.735 10.6045 177.183 11.0599 176.309 11.0599C175.35 11.0599 174.87 10.6525 174.811 9.86152C174.763 9.23835 174.775 8.35153 174.775 8.26764H175.374C175.374 8.33955 175.374 9.26232 175.422 9.77763C175.434 10.2929 175.793 10.5087 176.297 10.5087C176.824 10.5087 177.171 10.1971 177.195 9.59787C177.231 8.66312 177.219 7.62051 177.183 7.27297C177.123 6.70972 176.848 6.2783 176.141 6.20639C176.129 6.20639 175.554 6.18242 175.554 6.18242V5.59521C175.554 5.59521 176.081 5.57124 176.093 5.57124C176.752 5.47537 177.028 5.13981 177.052 4.51664C177.076 3.7976 177.123 3.37816 177.064 2.65912C177.028 2.19174 176.752 1.96405 176.309 1.96405C175.817 1.96405 175.566 2.25166 175.53 2.73102C175.518 3.04261 175.506 3.96538 175.506 4.0253H174.918C174.918 3.9534 174.93 2.98269 174.942 2.69507C175.002 1.90413 175.494 1.37683 176.309 1.37683C177.243 1.37683 177.615 1.9281 177.663 2.68309C177.711 3.39015 177.675 3.7976 177.639 4.50466C177.603 5.21172 177.243 5.77497 176.608 5.84687ZM188.686 6.55393H186.122V5.90679H188.686V6.55393ZM198.599 1.37683C199.581 1.37683 200.013 2.02397 200.061 2.93475C200.109 3.90546 200.109 5.42743 200.109 6.20639C200.109 6.97337 200.133 8.56724 200.085 9.37017C200.013 10.5806 199.473 11.0599 198.587 11.0599C197.676 11.0599 197.196 10.6165 197.125 9.37017C197.089 8.81891 197.077 7.08122 197.077 6.20639C197.077 5.27164 197.065 3.7976 197.125 2.93475C197.185 2 197.64 1.37683 198.599 1.37683ZM199.497 6.15846C199.497 4.97204 199.473 3.41411 199.449 2.8988C199.414 2.32357 199.126 1.96405 198.587 1.96405C198.011 1.96405 197.784 2.35952 197.736 2.91079C197.7 3.46205 197.688 5.37949 197.688 6.19441C197.688 7.10519 197.676 8.53129 197.748 9.64581C197.784 10.1731 198.083 10.4967 198.599 10.4967C199.126 10.4967 199.414 10.1851 199.449 9.64581C199.509 8.65113 199.497 7.12916 199.497 6.15846ZM210.408 11H209.785V2.50333L208.562 2.5992V2.11984C209.425 1.97603 209.808 1.83222 210.012 1.42477H210.408V11ZM220.784 11H220.161V2.50333L218.939 2.5992V2.11984C219.802 1.97603 220.185 1.83222 220.389 1.42477H220.784V11Z" fill="#E8E3CE"/>
<path d="M396.422 217.036H394.252V220.871H396.266V221.458H394.252V226H393.641V216.437H396.422V217.036ZM409.22 226H408.645V220.523L408.656 218.462L407.362 226H406.763L405.541 218.462L405.553 220.523V226H404.989V216.437H405.78L407.087 224.478L408.441 216.437H409.22V226ZM429.382 220.847C430.077 220.919 430.496 221.326 430.58 222.129C430.628 222.788 430.64 224.107 430.592 224.646C430.508 225.605 429.957 226.06 429.082 226.06C428.123 226.06 427.644 225.652 427.584 224.862C427.536 224.238 427.548 223.352 427.548 223.268H428.147C428.147 223.34 428.147 224.262 428.195 224.778C428.207 225.293 428.567 225.509 429.07 225.509C429.598 225.509 429.945 225.197 429.969 224.598C430.005 223.663 429.993 222.621 429.957 222.273C429.897 221.71 429.621 221.278 428.914 221.206C428.902 221.206 428.327 221.182 428.327 221.182V220.595C428.327 220.595 428.855 220.571 428.866 220.571C429.526 220.475 429.801 220.14 429.825 219.517C429.849 218.798 429.897 218.378 429.837 217.659C429.801 217.192 429.526 216.964 429.082 216.964C428.591 216.964 428.339 217.252 428.303 217.731C428.291 218.043 428.279 218.965 428.279 219.025H427.692C427.692 218.953 427.704 217.983 427.716 217.695C427.776 216.904 428.267 216.377 429.082 216.377C430.017 216.377 430.388 216.928 430.436 217.683C430.484 218.39 430.448 218.798 430.412 219.505C430.376 220.212 430.017 220.775 429.382 220.847ZM440.621 216.377C441.604 216.377 442.035 217.024 442.083 217.935C442.131 218.905 442.131 220.427 442.131 221.206C442.131 221.973 442.155 223.567 442.107 224.37C442.035 225.581 441.496 226.06 440.609 226.06C439.698 226.06 439.219 225.617 439.147 224.37C439.111 223.819 439.099 222.081 439.099 221.206C439.099 220.272 439.087 218.798 439.147 217.935C439.207 217 439.662 216.377 440.621 216.377ZM441.52 221.158C441.52 219.972 441.496 218.414 441.472 217.899C441.436 217.324 441.148 216.964 440.609 216.964C440.034 216.964 439.806 217.36 439.758 217.911C439.722 218.462 439.71 220.379 439.71 221.194C439.71 222.105 439.698 223.531 439.77 224.646C439.806 225.173 440.106 225.497 440.621 225.497C441.148 225.497 441.436 225.185 441.472 224.646C441.532 223.651 441.52 222.129 441.52 221.158ZM453.077 221.554H450.513V220.907H453.077V221.554ZM462.666 226H462.043V217.503L460.821 217.599V217.12C461.684 216.976 462.067 216.832 462.271 216.425H462.666V226ZM474.418 224.73C474.274 225.617 473.807 226.06 472.932 226.06C472.021 226.06 471.542 225.521 471.458 224.73C471.374 223.939 471.374 222.465 471.47 221.77C471.542 221.17 471.973 220.859 472.225 220.775C471.949 220.667 471.685 220.475 471.625 219.756C471.589 219.277 471.53 218.079 471.625 217.515C471.733 216.844 472.129 216.377 472.932 216.377C473.771 216.377 474.214 216.832 474.262 217.491C474.298 218.019 474.286 219.085 474.238 219.744C474.19 220.391 473.926 220.667 473.651 220.775C473.974 220.859 474.346 221.206 474.418 221.782C474.502 222.321 474.502 224.334 474.418 224.73ZM473.663 219.936C473.711 219.241 473.711 218.067 473.651 217.575C473.603 217.18 473.339 216.94 472.944 216.94C472.488 216.94 472.273 217.204 472.213 217.575C472.129 218.103 472.141 219.265 472.213 219.936C472.249 220.296 472.56 220.511 472.932 220.511C473.291 220.511 473.639 220.296 473.663 219.936ZM473.807 224.778C473.866 223.987 473.83 222.165 473.807 221.83C473.771 221.338 473.399 221.063 472.932 221.063C472.476 221.063 472.081 221.35 472.033 221.889C471.997 222.321 471.997 223.987 472.033 224.646C472.057 225.245 472.44 225.509 472.92 225.509C473.399 225.509 473.771 225.269 473.807 224.778ZM486.265 223.579H485.522V226H484.935V223.579H482.814V222.908L484.791 216.425H485.522V223.004H486.265V223.579ZM484.935 223.004V217.791L483.365 223.004H484.935Z" fill="#E8E3CE"/>
<path d="M4.00741 112.204L534 112.204" stroke="#E8E3CE" stroke-width="5.59254"/>
</svg>
