<svg width="70" height="15" viewBox="0 0 70 15" fill="none" xmlns="http://www.w3.org/2000/svg">
<path d="M68.5851 7.29465C68.5641 7.27365 68.5524 7.24564 68.5524 7.21297C68.5524 7.1803 68.5641 7.1523 68.5851 7.1313C69.3925 6.4149 69.8989 5.37414 69.8989 4.21437C69.8989 4.15137 69.8966 4.0907 69.8942 4.03003V4.03936C69.8989 3.96935 69.9012 3.89001 69.9012 3.80834C69.9012 1.70582 68.1954 0 66.0929 0C65.9482 0 65.8059 0.00700116 65.6658 0.0233359L65.6822 0.0210015H48.0429C47.9846 0.023335 47.9379 0.0723392 47.9379 0.130678C47.9379 0.130678 47.9379 0.130679 47.9379 0.133012V1.5168C47.9426 1.57981 47.9916 1.62881 48.0546 1.63348H64.6531C66.0509 1.63348 66.7346 2.65324 66.7346 4.05103C66.7346 5.44882 66.0649 6.46858 64.6601 6.46858H48.0616C48.0033 6.47324 47.9566 6.52225 47.9566 6.58292V7.98304C47.9566 8.03671 48.0009 8.07872 48.0546 8.07872C48.0569 8.07872 48.0616 8.07872 48.0639 8.07872H64.6624C66.4966 8.09972 66.7299 9.88488 66.7299 10.788V10.963C66.7299 12.3748 66.0602 13.3899 64.6624 13.3899H48.0639C48.0079 13.3899 47.9613 13.4342 47.9613 13.4879V14.8763C47.9613 14.9347 48.0079 14.9837 48.0663 14.9837H65.6845C65.7872 14.993 65.9085 15 66.0299 15C68.1651 15 69.8989 13.2685 69.8989 11.131C69.8989 11.0727 69.8966 11.0143 69.8942 10.956V10.9653V10.7996C69.8966 10.7343 69.8989 10.6596 69.8989 10.5849C69.8989 9.32249 69.3972 8.17439 68.5828 7.33432V7.33665L68.5851 7.29465ZM17.7606 0.0210015H0.119011H0.116677C0.0583384 0.0210015 0.0116676 0.065338 0.00933404 0.123676V1.51213C0.00933404 1.57047 0.056005 1.61714 0.114344 1.61714C0.116677 1.61714 0.116677 1.61714 0.119011 1.61714H16.7012C18.0989 1.61714 18.7687 2.62757 18.7687 4.03469C18.7687 5.44182 18.1036 6.45224 16.7012 6.45224H3.58432C1.59147 6.51991 0 8.15106 0 10.1556C0 10.2512 0.00466707 10.3469 0.0116677 10.4403V10.4286V14.8343C0.0163348 14.895 0.0676726 14.9417 0.128345 14.9417H3.12695C3.18762 14.9417 3.24129 14.895 3.24362 14.8343V10.4286C3.23195 10.3469 3.22729 10.2536 3.22729 10.1579C3.22729 9.0308 4.10703 8.10672 5.2178 8.04138H5.2248H17.7722C17.8983 8.05538 18.0453 8.06472 18.1923 8.06472C20.2855 8.06472 21.9843 6.3659 21.9843 4.27271C21.9843 4.19104 21.982 4.10937 21.9773 4.03003V4.04169C21.982 3.97169 21.9843 3.88768 21.9843 3.806C21.9843 1.70582 20.2808 0.00233226 18.1806 0.00233226C18.0383 0.00233226 17.8983 0.00933342 17.7606 0.0256682L17.7769 0.0233359L17.7606 0.0210015ZM44.7456 0.0210015H35.5795C35.4558 0.00700021 35.3158 0 35.1711 0C33.0663 0 31.3628 1.70582 31.3628 3.80834C31.3628 3.89001 31.3651 3.97169 31.3698 4.05103V4.03936V10.9256C31.3698 12.3328 30.7047 13.3432 29.3023 13.3432H21.2819C21.2259 13.3432 21.1792 13.3899 21.1792 13.4459V14.8156C21.1792 14.8203 21.1792 14.8227 21.1792 14.8273C21.1792 14.8717 21.2166 14.909 21.2609 14.909C21.2632 14.909 21.2656 14.909 21.2679 14.909H30.3244C30.4504 14.923 30.5951 14.9323 30.7421 14.9323C32.8469 14.9323 34.5551 13.2265 34.5551 11.1193C34.5551 11.0423 34.5527 10.9653 34.5481 10.8883V10.9V4.01836C34.5481 2.6089 35.2015 1.59614 36.6156 1.59614H44.7153C44.7177 1.59614 44.72 1.59614 44.7223 1.59614C44.7783 1.59614 44.825 1.55414 44.832 1.50047V0.116677C44.8273 0.058339 44.7783 0.0140002 44.72 0.0140002C44.7176 0.0140002 44.7177 0.0140002 44.7153 0.0140002L44.7456 0.0210015Z" fill="#E8E3CE"/>
</svg>
