<svg width="70" height="15" viewBox="0 0 70 15" fill="none" xmlns="http://www.w3.org/2000/svg">
<path d="M16.4497 6.46287C17.7828 6.45121 18.8595 5.36746 18.8595 4.03201C18.8595 2.69655 17.7828 1.6128 16.452 1.60115H0.104879C0.0466127 1.59882 0 1.55221 0 1.49161V0.104879C0 0.046613 0.0466127 0 0.104879 0H18.0252C20.202 0.0605966 21.9453 1.84121 21.9453 4.02968C21.9453 6.21815 20.2043 7.99643 18.0298 8.05935H18.0252H5.6285C4.28838 8.05935 3.2023 9.14543 3.2023 10.4855V14.8951C3.2023 14.9534 3.15569 15 3.09742 15H0.107209C0.0489434 15 0.00233075 14.9534 0.00233075 14.8951C0.00233075 14.8905 0.00233075 14.8881 0.00233075 14.8835V10.4762C0.0116533 8.25746 1.81091 6.46287 4.02968 6.46287C4.03201 6.46287 4.03201 6.46287 4.03434 6.46287H16.4497ZM48.0392 5.6285V0.104879C48.0392 0.046613 48.0858 0 48.144 0H69.4274C69.4857 0 69.5346 0.046613 69.537 0.104879V1.49161C69.5346 1.54988 69.488 1.59882 69.4274 1.60115H51.344C51.2857 1.60115 51.2391 1.64776 51.2391 1.70603V5.30454C51.2391 5.30687 51.2391 5.3092 51.2391 5.31153C51.2391 5.94779 51.7542 6.46287 52.3905 6.46287H52.3928H65.8569C68.1153 6.58406 69.8982 8.44624 69.8982 10.7233C69.8982 13.0003 68.113 14.8602 65.8662 14.9814H65.8546H48.144C48.0858 14.9814 48.0392 14.9347 48.0392 14.8765V13.4967C48.0392 13.4385 48.0858 13.3919 48.144 13.3919H64.2511C64.2744 13.3919 64.3024 13.3919 64.3303 13.3919C65.8033 13.3919 66.9989 12.1986 66.9989 10.7233C66.9989 9.24798 65.8056 8.05469 64.3303 8.05469C64.2954 8.05469 64.2604 8.05469 64.2254 8.05702H64.2301H50.463C49.1229 8.05702 48.0368 6.97094 48.0368 5.63083V5.6285H48.0392ZM30.4335 14.9814C32.6569 14.9814 34.4608 13.1774 34.4608 10.954V4.02735C34.4608 2.68723 35.5469 1.60115 36.887 1.60115H44.7063C44.7646 1.59882 44.8112 1.55221 44.8112 1.49161V0.104879C44.8112 0.046613 44.7646 0 44.7063 0H35.2882C33.0648 0 31.2585 1.80392 31.2585 4.02735V10.961C31.2585 12.3011 30.1725 13.3895 28.8323 13.3895H21.1249C21.0667 13.3895 21.02 13.4361 21.02 13.4944V14.8811C21.02 14.9394 21.0667 14.986 21.1249 14.986L30.4335 14.9814Z" fill="#E8E3CE"/>
</svg>
