<svg width="20" height="20" viewBox="0 0 20 20" fill="none" xmlns="http://www.w3.org/2000/svg">
<path d="M20 16.6667V6.66667H5V16.6667H11.6667V18.3333H8.33333V20H16.6667V18.3333H13.3333V16.6667H20ZM6.66667 15V8.33333H18.3333V15H6.66667ZM8.33333 5H3.33333V3.33333H8.33333V5ZM10 5V1.66667H1.66667V13.3333H3.33333V18.3333H6.66667V20H1.66667C1.22464 20 0.800716 19.8244 0.488155 19.5118C0.175595 19.1993 0 18.7754 0 18.3333V1.66667C0 1.22464 0.175595 0.800716 0.488155 0.488155C0.800716 0.175595 1.22464 0 1.66667 0H10C10.442 0 10.866 0.175595 11.1785 0.488155C11.4911 0.800716 11.6667 1.22464 11.6667 1.66667V5H10Z" fill="#E8E3CE"/>
</svg>
