<svg width="32" height="15" viewBox="0 0 32 15" fill="none" xmlns="http://www.w3.org/2000/svg">
<path d="M23.3973 0.000324911C22.4446 -0.0179706 21.6592 0.738678 21.6409 1.69004V1.71357C21.6566 2.67016 22.4407 3.43203 23.3973 3.41896C24.4205 3.41896 25.2321 2.66232 25.2321 1.71357C25.2334 0.756973 24.4218 0.000324911 23.3973 0.000324911ZM29.5524 0.000324911C28.5762 0.000324911 27.7751 0.75828 27.7751 1.71357C27.7751 2.64271 28.5762 3.41896 29.5537 3.41896C30.5561 3.41896 31.3637 2.66232 31.3637 1.71357C31.3637 0.756973 30.5561 0.000324911 29.5524 0.000324911ZM10.1592 0.709928C9.18171 0.709928 8.52308 1.19868 8.18069 2.29771C7.86444 3.41766 5.83626 11.2128 5.83626 11.2128L3.17557 0.831462H0C0 0.831462 3.05012 11.8924 3.46569 13.1887C3.78063 14.1885 4.56341 15 5.68728 15C7.00586 15 7.62006 14.0434 7.88796 13.1887C8.182 12.3053 10.1592 5.00675 10.1592 5.00675C10.1592 5.00675 12.139 12.3106 12.4056 13.1887C12.6997 14.0421 13.3073 15 14.6037 15C15.7524 15 16.5064 14.1885 16.8514 13.1887C17.2631 11.895 20.3237 0.831462 20.3237 0.831462H17.122L14.4809 11.2128C14.4809 11.2128 12.4553 3.41766 12.1129 2.29771C11.7967 1.19476 11.1067 0.709928 10.1592 0.709928ZM21.931 5.10476V14.8994H24.9655V5.10476H21.931ZM28.064 5.10476V14.8994H31.0919V5.10476H28.064Z" fill="#E8E3CE"/>
</svg>
