<svg width="26" height="20" viewBox="0 0 26 20" fill="none" xmlns="http://www.w3.org/2000/svg">
<path d="M1.92215 17.0191C-0.0980192 16.4396 -0.432445 15.2457 0.484034 14.5522C1.14438 14.1182 1.90343 13.7404 2.70673 13.4562L2.78076 13.4332L8.75192 11.2922V13.7514L4.47161 15.3163C3.72192 15.6048 3.59428 15.9886 4.21717 16.1945C4.52777 16.2737 4.88347 16.3196 5.25023 16.3196C5.77357 16.3196 6.27478 16.2269 6.73856 16.0575L6.70877 16.0669L8.76979 15.3163V17.522C8.64214 17.5535 8.49748 17.5688 8.35537 17.5995C7.69588 17.7152 6.93683 17.7816 6.16246 17.7816C4.64946 17.7816 3.19603 17.528 1.84131 17.0617L1.93491 17.0897L1.92215 17.0191ZM14.5052 17.271L21.2005 14.8517C21.9604 14.5777 22.0787 14.1871 21.4618 13.982C21.1529 13.9063 20.7989 13.8629 20.4338 13.8629C19.9045 13.8629 19.3957 13.9548 18.9242 14.1225L18.9557 14.1131L14.4839 15.7078V13.1694L14.7392 13.0792C15.6327 12.7822 16.6828 12.5516 17.7661 12.4316L17.8367 12.4248C18.235 12.3823 18.6962 12.3584 19.1634 12.3584C20.7606 12.3584 22.2923 12.6401 23.71 13.1575L23.6181 13.1277C25.583 13.7668 25.7872 14.6926 25.2936 15.3308C24.8179 15.8048 24.2427 16.1801 23.6019 16.4217L23.5687 16.4328L14.4831 19.7371V17.2957L14.5052 17.271ZM9.55437 0V18.6589L13.7172 20V4.35093C13.7172 3.61741 14.0406 3.12726 14.5614 3.29745C15.2379 3.48892 15.3698 4.16287 15.3698 4.8981V11.1458C17.9652 12.4146 20.0084 11.1433 20.0084 7.7939C20.0084 4.35179 18.8111 2.82262 15.289 1.59724C13.77 1.04582 11.8511 0.496107 9.88794 0.0612688L9.55692 0H9.55437Z" fill="#E8E3CE"/>
</svg>
