<svg width="71" height="15" viewBox="0 0 71 15" fill="none" xmlns="http://www.w3.org/2000/svg">
<path d="M49.4913 11.5291L63.5013 2.8694C63.5294 2.84366 63.5669 2.82961 63.6066 2.82961C63.6956 2.82961 63.7658 2.89983 63.7658 2.98876C63.7658 2.99579 63.7658 3.00281 63.7635 3.00983V11.6695C63.7635 11.7257 63.719 11.7702 63.6652 11.7748H49.5756C49.4586 11.7748 49.4001 11.7397 49.386 11.7046C49.3673 11.6344 49.4001 11.5829 49.4913 11.5291ZM46.8747 13.3921H63.6558C63.6581 13.3921 63.6605 13.3921 63.6628 13.3921C63.7049 13.3921 63.7377 13.4225 63.7447 13.4623V14.876C63.7447 14.8783 63.7447 14.8806 63.7447 14.883C63.7447 14.9368 63.7892 14.9813 63.843 14.9813C63.8454 14.9813 63.8454 14.9813 63.8477 14.9813H66.8739C66.8763 14.9813 66.8786 14.9813 66.8809 14.9813C66.9348 14.9813 66.9792 14.9368 66.9792 14.883C66.9792 14.8806 66.9792 14.8783 66.9792 14.876V13.4857C66.9863 13.4272 67.0354 13.3827 67.0963 13.3804H70.1038C70.1061 13.3804 70.1061 13.3804 70.1084 13.3804C70.1646 13.3804 70.2091 13.3359 70.2091 13.2798C70.2091 13.2774 70.2091 13.2774 70.2091 13.2751V11.8591C70.2091 11.8568 70.2091 11.8544 70.2091 11.8497C70.2091 11.7959 70.1646 11.7538 70.1131 11.7538C70.1108 11.7538 70.1084 11.7538 70.1061 11.7538H67.0939C67.0354 11.7538 66.9886 11.7093 66.9863 11.6508V1.533C66.9863 0.704477 66.682 0.177874 66.1671 0.00233917H65.2894C64.9524 0.0959575 64.6575 0.227024 64.3884 0.395537L64.4024 0.386176L46.327 11.5431C45.6249 11.9808 45.3815 12.4723 45.557 12.8444C45.6975 13.1487 46.0977 13.3757 46.8841 13.3757L46.8747 13.3921ZM0.0842565 15H3.15494C3.19941 14.9813 3.22749 14.9368 3.22749 14.8877C3.22749 14.8853 3.22749 14.8853 3.22749 14.883V10.4384C3.22749 9.0131 4.03261 8.03245 5.20518 8.03245H17.8483C17.9724 8.04649 18.1175 8.05586 18.2626 8.05586C20.3737 8.05586 22.0822 6.34498 22.0822 4.23623C22.0822 4.14729 22.0799 4.0607 22.0729 3.9741V3.9858C22.0799 3.90623 22.0822 3.81261 22.0822 3.71899C22.0822 1.75768 20.5609 0.152131 18.6324 0.0187245H18.6207H0.0280854L0.00936171 0.046808V1.43704C0.00936171 1.43938 0.00936171 1.44406 0.00936171 1.44874C0.00936171 1.50023 0.05149 1.5447 0.105321 1.5447C0.110001 1.5447 0.114682 1.5447 0.119363 1.5447H16.7811C18.1971 1.5447 18.8641 2.56748 18.8641 3.98112C18.8641 5.3971 18.1994 6.4269 16.7811 6.4269H3.59728C1.59385 6.50414 0 8.1448 0 10.1599C0 10.2582 0.00468091 10.3589 0.0117023 10.4548V10.4408V14.883C0.0117023 14.8853 0.0117023 14.89 0.0117023 14.8923C0.0117023 14.9438 0.0468091 14.986 0.0936182 14.9977L0.0842565 15ZM35.9939 10.951V3.96942C35.9939 2.54876 36.6586 1.53066 38.0769 1.53066H46.8209C46.877 1.52598 46.9192 1.48151 46.9239 1.42534V0.0351077L46.9145 0H36.2092C34.269 0.138087 32.7477 1.74364 32.7477 3.70729C32.7477 3.79856 32.75 3.89218 32.7571 3.98112V3.96942V10.9487C32.7571 12.3576 32.076 13.3781 30.6811 13.3781H21.4573C21.455 13.3781 21.455 13.3781 21.4526 13.3781C21.3965 13.3781 21.352 13.4225 21.352 13.4787C21.352 13.481 21.352 13.481 21.352 13.4834V14.8736C21.352 14.876 21.352 14.8806 21.352 14.883C21.352 14.9298 21.3801 14.9719 21.4199 14.9906H31.9028C31.98 14.9953 32.069 15 32.1602 15C34.2713 15 35.9845 13.2891 35.9845 11.1757C35.9845 11.0938 35.9822 11.0095 35.9775 10.9276V10.9393L35.9939 10.951Z" fill="#E8E3CE"/>
</svg>
