<svg width="20" height="20" viewBox="0 0 20 20" fill="none" xmlns="http://www.w3.org/2000/svg">
<path d="M10 2.95939C8.74301 2.21039 7.26631 1.67976 5.69041 1.46205L5.62916 1.45539C5.58256 1.45206 5.52796 1.45007 5.47337 1.45007C5.06525 1.45007 4.68242 1.55659 4.3502 1.74368L4.36152 1.73768C5.93076 0.6498 7.87483 0 9.97137 0C9.9767 0 9.98202 0 9.98735 0H10C10.0033 0 10.0073 0 10.012 0C12.1138 0 14.0639 0.6498 15.6718 1.75899L15.6385 1.73702C15.3202 1.55593 14.9387 1.44873 14.532 1.44873C14.4754 1.44873 14.4194 1.45073 14.3642 1.45473L14.3715 1.45406C12.7344 1.67776 11.2577 2.20639 9.94541 2.98336L10 2.9534V2.95939ZM3.04527 2.85486C3.01798 2.86418 2.99401 2.87617 2.97204 2.89081L2.97337 2.89015C1.13715 4.70306 0 7.22037 0 10.0033C0 12.3895 0.836219 14.5806 2.23236 16.2996L2.21771 16.281C1.04993 14.1099 5.2004 7.98868 7.28429 5.52264C4.93409 3.17843 3.77097 2.81824 3.27963 2.81824C3.27297 2.81824 3.26565 2.81758 3.25832 2.81758C3.18176 2.81758 3.10852 2.83156 3.04128 2.85752L3.04527 2.85619V2.85486ZM12.7184 5.52264C14.8016 7.99001 18.9547 14.1165 17.7816 16.2823C19.1631 14.5819 20 12.3908 20 10.004C20 7.22037 18.8622 4.70306 17.026 2.89081L17.0246 2.88948C17.0053 2.8755 16.9827 2.86352 16.9581 2.85486L16.9561 2.85419C16.8895 2.83023 16.8122 2.81691 16.7324 2.81691C16.729 2.81691 16.725 2.81691 16.7217 2.81691C16.2284 2.81691 15.0679 3.17909 12.7184 5.52264ZM3.41811 17.5273C5.16711 19.0626 7.4747 20 10.0013 20C12.528 20 14.8356 19.0632 16.5959 17.518L16.5846 17.528C18.1485 15.9348 12.988 10.2703 10 8.01398C7.01531 10.271 1.85087 15.9341 3.41811 17.5273Z" fill="#E8E3CE"/>
</svg>
